<?xml version="1.0" encoding="UTF-8" standalone="no"?>
<!-- Created with Inkscape (http://www.inkscape.org/) -->

<svg
   xmlns:dc="http://purl.org/dc/elements/1.1/"
   xmlns:cc="http://creativecommons.org/ns#"
   xmlns:rdf="http://www.w3.org/1999/02/22-rdf-syntax-ns#"
   xmlns:svg="http://www.w3.org/2000/svg"
   xmlns="http://www.w3.org/2000/svg"
   xmlns:sodipodi="http://sodipodi.sourceforge.net/DTD/sodipodi-0.dtd"
   xmlns:inkscape="http://www.inkscape.org/namespaces/inkscape"
   version="1.0"
   width="340"
   height="527"
   id="svg2"
   inkscape:version="0.48.2 r9819"
   sodipodi:docname="thot.svg">
  <metadata
     id="metadata7">
    <rdf:RDF>
      <cc:Work
         rdf:about="">
        <dc:format>image/svg+xml</dc:format>
        <dc:type
           rdf:resource="http://purl.org/dc/dcmitype/StillImage" />
      </cc:Work>
    </rdf:RDF>
  </metadata>
  <sodipodi:namedview
     pagecolor="#ffffff"
     bordercolor="#666666"
     borderopacity="1"
     objecttolerance="10"
     gridtolerance="10"
     guidetolerance="10"
     inkscape:pageopacity="0"
     inkscape:pageshadow="2"
     inkscape:window-width="1358"
     inkscape:window-height="991"
     id="namedview5"
     showgrid="false"
     inkscape:zoom="5.0664805"
     inkscape:cx="269.14101"
     inkscape:cy="454.81535"
     inkscape:window-x="0"
     inkscape:window-y="0"
     inkscape:window-maximized="0"
     inkscape:current-layer="svg2" />
  <defs
     id="defs5" />
  <path
     d="m 312.0595,89.724473 c -2.66134,-3.481498 -5.41534,-6.92464 -6.12001,-7.651426 -0.70466,-0.726785 -1.2812,-1.739285 -1.2812,-2.25 0,-1.63206 2.47738,-0.995058 3.6916,0.949211 0.64498,1.032779 3.27148,4.454526 5.83667,7.60388 3.03323,3.723994 4.32267,6.067398 3.68785,6.702218 -0.63482,0.63482 -2.66798,-1.23714 -5.81491,-5.353883 z m 12.99899,2.420003 c -1.56045,-2.0625 -3.89183,-4.875 -5.18085,-6.25 -3.41927,-3.647327 -4.42703,-5.753613 -3.13492,-6.552179 0.59941,-0.370456 1.43563,-0.285266 1.85826,0.189311 2.83074,3.178651 11.05731,14.652998 11.05731,15.422638 0,1.94879 -1.85846,0.81356 -4.5998,-2.80977 z m -47.6502,2.06067 c -3.71604,-0.9711 -1.46903,-6.877874 3.98438,-10.473843 7.00656,-4.620118 19.20176,0.982455 18.07841,8.305368 -0.28507,1.858305 -1.08833,2.053155 -9.06314,2.198415 -4.81269,0.08766 -8.75019,-0.17811 -8.75,-0.59061 1.9e-4,-0.4125 3.60035,-0.75 8.00035,-0.75 8.99481,0 9.74537,-0.77229 5.57145,-5.732715 -1.9429,-2.309008 -3.34754,-2.933736 -7.0241,-3.124049 -4.8052,-0.248737 -5.87348,0.358085 -8.97228,5.096577 -1.62181,2.479959 -1.6392,2.798348 -0.1834,3.356989 0.88458,0.339446 1.60833,1.019028 1.60833,1.510188 0,0.93336 -0.36927,0.9565 -3.25,0.20368 z m 25.09769,-19.06067 c -0.0838,-0.4125 -0.21,-1.2 -0.2805,-1.75 -0.0705,-0.55 -0.98918,-2.445902 -2.04151,-4.213114 -2.2643,-3.802535 -5.54119,-4.765278 -13.03341,-3.829187 -3.03339,0.378997 -5.55035,0.25735 -5.88519,-0.284439 -1.01548,-1.643078 2.09303,-3.29448 6.31091,-3.352692 3.47886,-0.04801 4.35387,-0.524381 6.07323,-3.306365 3.37954,-5.468203 2.70163,-9.41781 -2.49122,-14.514203 -3.9483,-3.874963 -4.5,-4.94259 -4.5,-8.708208 0,-3.262666 -0.38263,-4.291792 -1.59571,-4.291792 -2.34083,0 -7.40429,3.224791 -7.40429,4.715608 0,0.706415 -0.675,1.284392 -1.5,1.284392 -2.85464,0 -1.48047,-2.629411 3.16575,-6.0575 7.83589,-5.781497 9.30716,-6.398164 11.06679,-4.63853 1.35547,1.355467 1.35331,1.995844 -0.0203,6.027277 -0.84532,2.480873 -1.27638,4.771244 -0.9579,5.089715 0.31847,0.318471 3.14537,0.579038 6.28201,0.579038 4.9247,0 7.22904,0.763304 16.88557,5.593294 6.15042,3.076311 11.01322,6.101399 10.80622,6.722417 -0.55877,1.676292 -4.85465,2.463646 -7.88634,1.445417 -1.46203,-0.49104 -4.38703,-0.750674 -6.5,-0.576964 l -3.84176,0.315836 0,5 c 0,4.423837 0.25927,5.036823 2.25,5.319551 3.03161,0.430557 2.86195,2.988754 -0.25,3.769805 -2.24043,0.562312 -2.5,1.135343 -2.5,5.519052 0,2.690376 -0.45,4.891592 -1,4.891592 -0.55,0 -1.06854,-0.3375 -1.15231,-0.75 z m 0.65944,-15.272471 c 0.84579,-2.664849 -0.26948,-7.535407 -2.06709,-9.027289 -1.1775,-0.977243 -1.78301,-0.413034 -3.41376,3.180902 -2.54858,5.616741 -2.51677,6.635284 0.22372,7.163125 4.20394,0.809714 4.61489,0.706783 5.25713,-1.316738 z m 15.92826,-9.872985 c 0.30438,-0.492501 -3.49457,-2.967501 -8.44212,-5.5 -7.57643,-3.878141 -9.89255,-4.604544 -14.6815,-4.604544 l -5.68595,0 2.93709,3.089276 c 4.57507,4.812125 8.02987,6.169728 15.37467,6.041635 3.60933,-0.06295 7.23742,0.324958 8.06242,0.862008 1.84699,1.202336 1.76365,1.198516 2.43539,0.111625 z M 289.65829,28.894476 c 0,-0.55 -0.45,-1 -1,-1 -0.55,0 -1,0.45 -1,1 0,0.55 0.45,1 1,1 0.55,0 1,-0.45 1,-1 z"
     id="path2177"
     style="fill:#000000"
     inkscape:connector-curvature="0"
     sodipodi:nodetypes="ssssssssssssssssssssssssscsssssssssssssscsscsscsssssccsssssssscsssssssss" />
</svg>
